<svg width="161" height="64" viewBox="0 0 161 64" fill="none" xmlns="http://www.w3.org/2000/svg">
<g clip-path="url(#clip0_240_1675)">
<path d="M93.704 37.602L92.3083 40.2566C91.5969 39.8844 91.022 39.296 90.6663 38.5763C89.6519 39.3933 88.4271 39.9066 87.1333 40.0569C85.8396 40.2072 84.5297 39.9883 83.355 39.4256C82.1804 38.8629 81.1889 37.9793 80.4953 36.877C79.8016 35.7746 79.434 34.4984 79.435 33.1959V32.5939C79.4364 30.7624 80.1646 29.0063 81.4597 27.7112C82.7547 26.4161 84.5108 25.6879 86.3423 25.6865H93.2497V36.8686C93.2512 37.0207 93.2943 37.1695 93.3744 37.2988C93.4545 37.4281 93.5685 37.5329 93.704 37.602ZM90.2613 28.6804H86.3478C85.3108 28.6819 84.3168 29.0948 83.5841 29.8286C82.8514 30.5623 82.4398 31.5569 82.4398 32.5939V33.1959C82.4201 33.7218 82.5067 34.2462 82.6944 34.7379C82.8821 35.2295 83.167 35.6783 83.5321 36.0573C83.8971 36.4363 84.3349 36.7377 84.8192 36.9437C85.3035 37.1496 85.8243 37.2557 86.3505 37.2557C86.8768 37.2557 87.3976 37.1496 87.8819 36.9437C88.3662 36.7377 88.804 36.4363 89.169 36.0573C89.5341 35.6783 89.819 35.2295 90.0067 34.7379C90.1944 34.2462 90.2809 33.7218 90.2613 33.1959V28.6804Z" fill="#ED3F3B"/>
<path d="M15.8017 37.5965L14.406 40.2511C13.7878 39.9258 13.2704 39.4377 12.9096 38.8396C12.5488 38.2415 12.3584 37.5561 12.3589 36.8576V26.6936H15.3529V36.8576C15.354 37.0098 15.3963 37.1589 15.4753 37.289C15.5544 37.4191 15.6671 37.5254 15.8017 37.5965Z" fill="#E5A348"/>
<path d="M31.4609 37.5801L30.0652 40.2347C29.447 39.9094 28.9296 39.4213 28.5688 38.8232C28.208 38.2251 28.0176 37.5397 28.0181 36.8412V32.5829C28.0174 32.0676 27.9149 31.5575 27.7166 31.0819C27.5182 30.6063 27.2279 30.1746 26.8622 29.8115C26.4966 29.4484 26.0628 29.1611 25.5858 28.966C25.1089 28.771 24.5981 28.6721 24.0828 28.675H20.6948V40.1088H17.6954V25.6755H24.0828C24.9915 25.6734 25.8917 25.8504 26.732 26.1965C27.5722 26.5426 28.336 27.051 28.9796 27.6925C29.6232 28.3341 30.134 29.0962 30.4827 29.9354C30.8315 30.7745 31.0113 31.6742 31.0121 32.5829V36.8412C31.0114 36.9938 31.0529 37.1436 31.1321 37.274C31.2114 37.4044 31.3251 37.5104 31.4609 37.5801Z" fill="#E5A348"/>
<path d="M46.8849 37.5965L45.4947 40.2511C44.7849 39.8768 44.2105 39.289 43.8526 38.5708C42.8383 39.3878 41.6135 39.9011 40.3197 40.0514C39.0259 40.2017 37.716 39.9829 36.5414 39.4202C35.3667 38.8574 34.3753 37.9738 33.6816 36.8715C32.9879 35.7691 32.6203 34.4929 32.6213 33.1905V32.5829C32.6228 30.7514 33.351 28.9953 34.646 27.7003C35.9411 26.4052 37.6972 25.677 39.5287 25.6755H43.4421V23.1249H46.4415V36.8576C46.4415 37.0094 46.4828 37.1583 46.5609 37.2885C46.639 37.4186 46.751 37.5251 46.8849 37.5965ZM43.4421 28.6749H39.5287C38.4922 28.6749 37.4982 29.0867 36.7653 29.8196C36.0324 30.5524 35.6207 31.5465 35.6207 32.5829V33.1905C35.6586 34.2023 36.0872 35.1601 36.8164 35.8626C37.5457 36.5651 38.5188 36.9576 39.5314 36.9576C40.544 36.9576 41.5172 36.5651 42.2464 35.8626C42.9757 35.1601 43.4043 34.2023 43.4421 33.1905V28.6749Z" fill="#E5A348"/>
<path d="M62.5168 37.5965L61.1211 40.2511C60.4113 39.8768 59.837 39.289 59.4791 38.5708C58.4648 39.3878 57.2399 39.9011 55.9461 40.0514C54.6524 40.2017 53.3425 39.9829 52.1678 39.4202C50.9932 38.8575 50.0017 37.9739 49.3081 36.8715C48.6144 35.7691 48.2468 34.4929 48.2478 33.1905V32.5829C48.2492 30.7514 48.9774 28.9953 50.2725 27.7003C51.5676 26.4052 53.3236 25.677 55.1552 25.6755H62.068V36.8576C62.0679 37.0101 62.1098 37.1596 62.1889 37.2899C62.2681 37.4202 62.3815 37.5263 62.5168 37.5965ZM59.0741 28.6749H55.1606C54.1237 28.6749 53.1291 29.0865 52.3953 29.8192C51.6616 30.552 51.2486 31.546 51.2472 32.5829V33.1905C51.2472 34.2284 51.6595 35.2238 52.3934 35.9577C53.1273 36.6916 54.1227 37.1039 55.1606 37.1039C56.1985 37.1039 57.1939 36.6916 57.9279 35.9577C58.6618 35.2238 59.0741 34.2284 59.0741 33.1905V28.6749Z" fill="#E5A348"/>
<path d="M100.507 39.9555C100.492 40.0003 100.473 40.0441 100.453 40.0869C100.173 40.7425 99.6533 41.2658 98.9994 41.549C98.3455 41.8321 97.6079 41.8534 96.9388 41.6085L95.9098 44.4218C96.5453 44.6593 97.2181 44.7816 97.8966 44.783C99.081 44.7791 100.236 44.4132 101.206 43.7342C102.177 43.0553 102.917 42.0958 103.326 40.9845L103.655 40.0869L108.92 25.692H105.729L102.024 35.8067L97.7543 25.692H94.5031L100.524 39.9227L100.507 39.9555Z" fill="#ED3F3B"/>
<path d="M75.6856 27.1698C74.4689 26.202 72.9601 25.6753 71.4055 25.6755H64.4981V41.4662C64.4981 41.618 64.4568 41.7669 64.3788 41.897C64.3007 42.0272 64.1887 42.1337 64.0547 42.2051L65.445 44.8816C66.0641 44.557 66.5827 44.0692 66.9445 43.4711C67.3063 42.8729 67.4975 42.1871 67.4975 41.4881V38.8609C68.5352 39.5697 69.7463 39.9826 71.0009 40.0551C72.2555 40.1276 73.5061 39.857 74.6185 39.2724C75.7309 38.6878 76.6631 37.8112 77.3149 36.7368C77.9668 35.6624 78.3136 34.4307 78.3183 33.174V32.5829C78.3164 31.5405 78.0786 30.5119 77.6227 29.5745C77.1667 28.637 76.5045 27.8149 75.6856 27.1698ZM75.3189 33.1905C75.2811 34.2023 74.8525 35.1601 74.1232 35.8626C73.3939 36.5651 72.4208 36.9576 71.4082 36.9576C70.3956 36.9576 69.4225 36.5651 68.6932 35.8626C67.9639 35.1601 67.5354 34.2023 67.4975 33.1905V28.6749H71.4055C72.4424 28.6749 73.437 29.0865 74.1708 29.8192C74.9045 30.552 75.3175 31.546 75.3189 32.5829V33.1905Z" fill="#ED3F3B"/>
<path d="M138.345 20.5744L146.823 17.0167C146.865 17.0026 146.905 16.9843 146.943 16.9619H146.982L147.179 17.0331L155.652 20.5908V22.3751L158.689 23.5355V18.2756L146.998 13.7874L135.313 18.2756V23.5355L138.345 22.3751V20.5744Z" fill="#E5A348"/>
<path d="M155.651 22.3587L158.689 23.5355V23.3439L155.651 22.1781V22.3587Z" fill="#E5A348"/>
<path d="M158.804 23.3329V23.5354L155.766 22.3696V22.1671L147.113 18.8448L138.711 22.0686L138.46 22.1671L135.427 23.3329L133.643 24.0116H133.588V33.2014L133.643 33.2342V38.4285C133.658 38.8778 133.702 39.3257 133.775 39.7694L133.643 39.6983C133.676 39.9117 133.72 40.1416 133.769 40.377C134.414 43.0369 135.962 45.3909 138.148 47.0381C139.086 47.6627 140.058 48.2346 141.06 48.7512L144.426 50.6012L147.058 51.9969L147.13 51.9531H147.173L149.817 50.5684L153.189 48.7129C154.189 48.1941 155.161 47.6222 156.1 46.9997C158.286 45.352 159.833 42.9982 160.479 40.3387C160.534 40.0978 160.572 39.8734 160.605 39.66C160.565 39.6851 160.523 39.7071 160.479 39.7256C160.548 39.2944 160.59 38.8594 160.605 38.423V33.2178L160.665 33.1795V24.039L158.804 23.3329ZM138.356 28.1604V27.832L139.5 27.3559L146.932 24.2306L147.053 24.1813H147.097L147.294 24.2579L155.876 27.8594V38.1712C155.824 39.4023 155.417 40.5922 154.705 41.5975C154.103 42.4404 153.435 42.8564 151.826 43.8361C150.217 44.8159 148.421 45.8284 147.13 46.5728C145.832 45.8175 144.059 44.8159 142.401 43.8361C140.742 42.8564 140.124 42.4404 139.527 41.5975C138.815 40.5981 138.408 39.4136 138.356 38.1876V28.1604Z" fill="#ED3F3B"/>
<path d="M16.9416 47.5575L16.4759 47.6892C16.4467 47.6116 16.4035 47.5362 16.3464 47.463C16.2907 47.3883 16.2146 47.3268 16.1179 47.2785C16.0213 47.2302 15.8976 47.206 15.7467 47.206C15.5403 47.206 15.3682 47.2536 15.2306 47.3488C15.0944 47.4425 15.0263 47.5618 15.0263 47.7068C15.0263 47.8357 15.0732 47.9374 15.1669 48.0121C15.2606 48.0868 15.407 48.149 15.6062 48.1988L16.1069 48.3218C16.4086 48.395 16.6333 48.507 16.7812 48.6578C16.9291 48.8072 17.0031 48.9997 17.0031 49.2355C17.0031 49.4287 16.9474 49.6015 16.8361 49.7538C16.7263 49.9061 16.5726 50.0261 16.3749 50.114C16.1772 50.2018 15.9473 50.2458 15.6853 50.2458C15.3412 50.2458 15.0564 50.1711 14.8309 50.0217C14.6054 49.8724 14.4626 49.6542 14.4026 49.3672L14.8946 49.2442C14.9414 49.4258 15.03 49.562 15.1603 49.6528C15.2921 49.7435 15.4642 49.7889 15.6765 49.7889C15.9181 49.7889 16.1099 49.7377 16.2519 49.6352C16.3954 49.5312 16.4671 49.4068 16.4671 49.2618C16.4671 49.1447 16.4262 49.0466 16.3442 48.9675C16.2622 48.887 16.1362 48.8269 15.9664 48.7874L15.4041 48.6556C15.0952 48.5824 14.8682 48.4689 14.7233 48.3152C14.5798 48.16 14.508 47.966 14.508 47.7332C14.508 47.5428 14.5615 47.3744 14.6683 47.228C14.7767 47.0816 14.9239 46.9666 15.1098 46.8832C15.2972 46.7997 15.5095 46.758 15.7467 46.758C16.0806 46.758 16.3427 46.8312 16.533 46.9776C16.7249 47.124 16.861 47.3173 16.9416 47.5575ZM19.1978 50.2458C18.8727 50.2458 18.5923 50.174 18.3566 50.0305C18.1223 49.8856 17.9414 49.6835 17.8141 49.4243C17.6881 49.1637 17.6252 48.8606 17.6252 48.5151C17.6252 48.1695 17.6881 47.8649 17.8141 47.6014C17.9414 47.3364 18.1186 47.1299 18.3456 46.982C18.574 46.8327 18.8405 46.758 19.145 46.758C19.3207 46.758 19.4943 46.7873 19.6656 46.8458C19.8369 46.9044 19.9928 46.9996 20.1334 47.1314C20.274 47.2617 20.386 47.4345 20.4694 47.6497C20.5529 47.8649 20.5946 48.13 20.5946 48.4448V48.6644H17.9942V48.2164H20.0675C20.0675 48.026 20.0294 47.8562 19.9533 47.7068C19.8786 47.5575 19.7717 47.4396 19.6326 47.3532C19.495 47.2668 19.3325 47.2236 19.145 47.2236C18.9386 47.2236 18.7599 47.2749 18.6091 47.3774C18.4598 47.4784 18.3448 47.6102 18.2643 47.7727C18.1838 47.9352 18.1435 48.1095 18.1435 48.2954V48.5941C18.1435 48.8489 18.1874 49.0649 18.2753 49.242C18.3646 49.4178 18.4883 49.5517 18.6465 49.644C18.8046 49.7348 18.9884 49.7801 19.1978 49.7801C19.3339 49.7801 19.4569 49.7611 19.5667 49.723C19.678 49.6835 19.7739 49.6249 19.8545 49.5473C19.935 49.4683 19.9972 49.3702 20.0411 49.253L20.5419 49.3936C20.4892 49.5634 20.4006 49.7128 20.2762 49.8416C20.1517 49.969 19.998 50.0686 19.8149 50.1403C19.6319 50.2106 19.4262 50.2458 19.1978 50.2458ZM22.7536 50.2458C22.4374 50.2458 22.165 50.1711 21.9366 50.0217C21.7082 49.8724 21.5325 49.6667 21.4095 49.4046C21.2865 49.1425 21.225 48.843 21.225 48.5063C21.225 48.1636 21.2879 47.8613 21.4139 47.5992C21.5412 47.3356 21.7184 47.1299 21.9454 46.982C22.1738 46.8327 22.4403 46.758 22.7448 46.758C22.982 46.758 23.1958 46.8019 23.3862 46.8898C23.5765 46.9776 23.7325 47.1006 23.854 47.2587C23.9755 47.4169 24.0509 47.6014 24.0802 47.8122H23.5619C23.5223 47.6585 23.4345 47.5223 23.2983 47.4037C23.1636 47.2836 22.982 47.2236 22.7536 47.2236C22.5516 47.2236 22.3744 47.2763 22.2221 47.3817C22.0713 47.4857 21.9534 47.6329 21.8685 47.8232C21.785 48.0121 21.7433 48.2339 21.7433 48.4887C21.7433 48.7493 21.7843 48.9763 21.8663 49.1696C21.9498 49.3628 22.0669 49.5129 22.2177 49.6198C22.37 49.7267 22.5486 49.7801 22.7536 49.7801C22.8883 49.7801 23.0106 49.7567 23.1204 49.7099C23.2302 49.663 23.3232 49.5957 23.3994 49.5078C23.4755 49.4199 23.5297 49.3145 23.5619 49.1915H24.0802C24.0509 49.3907 23.9785 49.57 23.8628 49.7296C23.7486 49.8878 23.597 50.0137 23.4081 50.1074C23.2207 50.1997 23.0025 50.2458 22.7536 50.2458ZM26.964 48.7962V46.8019H27.4824V50.1755H26.964V49.6044H26.9289C26.8498 49.7758 26.7268 49.9214 26.5599 50.0415C26.393 50.1601 26.1821 50.2194 25.9273 50.2194C25.7165 50.2194 25.5291 50.1733 25.3651 50.081C25.2011 49.9873 25.0722 49.8468 24.9785 49.6594C24.8848 49.4705 24.838 49.2325 24.838 48.9455V46.8019H25.3563V48.9104C25.3563 49.1564 25.4251 49.3526 25.5627 49.499C25.7019 49.6454 25.879 49.7187 26.0943 49.7187C26.2231 49.7187 26.3542 49.6857 26.4874 49.6198C26.6221 49.5539 26.7349 49.4529 26.8256 49.3167C26.9179 49.1805 26.964 49.007 26.964 48.7962ZM28.4317 50.1755V46.8019H28.9325V47.3115H28.9676C29.0291 47.1445 29.1404 47.0091 29.3015 46.9051C29.4625 46.8012 29.6441 46.7492 29.8462 46.7492C29.8842 46.7492 29.9318 46.7499 29.9889 46.7514C30.046 46.7529 30.0892 46.7551 30.1185 46.758V47.2851C30.1009 47.2807 30.0607 47.2741 29.9977 47.2653C29.9362 47.2551 29.8711 47.25 29.8022 47.25C29.6382 47.25 29.4918 47.2844 29.363 47.3532C29.2356 47.4205 29.1345 47.5143 29.0599 47.6343C28.9867 47.7529 28.9501 47.8884 28.9501 48.0406V50.1755H28.4317ZM30.7329 50.1755V46.8019H31.2513V50.1755H30.7329ZM30.9965 46.2396C30.8955 46.2396 30.8083 46.2052 30.7351 46.1364C30.6634 46.0676 30.6275 45.9849 30.6275 45.8882C30.6275 45.7916 30.6634 45.7089 30.7351 45.64C30.8083 45.5712 30.8955 45.5368 30.9965 45.5368C31.0975 45.5368 31.1839 45.5712 31.2557 45.64C31.3289 45.7089 31.3655 45.7916 31.3655 45.8882C31.3655 45.9849 31.3289 46.0676 31.2557 46.1364C31.1839 46.2052 31.0975 46.2396 30.9965 46.2396ZM32.719 48.1461V50.1755H32.2006V46.8019H32.7014V47.329H32.7453C32.8244 47.1577 32.9445 47.0201 33.1055 46.9161C33.2666 46.8107 33.4745 46.758 33.7293 46.758C33.9577 46.758 34.1576 46.8048 34.3289 46.8985C34.5002 46.9908 34.6335 47.1314 34.7286 47.3202C34.8238 47.5077 34.8714 47.7449 34.8714 48.0319V50.1755H34.3531V48.067C34.3531 47.802 34.2842 47.5955 34.1466 47.4476C34.009 47.2983 33.8201 47.2236 33.5799 47.2236C33.4145 47.2236 33.2666 47.2595 33.1363 47.3312C33.0074 47.403 32.9057 47.5077 32.831 47.6453C32.7563 47.7829 32.719 47.9499 32.719 48.1461ZM37.1803 51.5109C36.9299 51.5109 36.7147 51.4787 36.5346 51.4142C36.3545 51.3513 36.2044 51.2678 36.0843 51.1638C35.9657 51.0613 35.8713 50.9515 35.801 50.8344L36.2139 50.5445C36.2608 50.606 36.3201 50.6763 36.3918 50.7553C36.4636 50.8359 36.5617 50.9054 36.6861 50.964C36.812 51.024 36.9768 51.054 37.1803 51.054C37.4526 51.054 37.6774 50.9881 37.8546 50.8564C38.0317 50.7246 38.1203 50.5181 38.1203 50.237V49.5517H38.0764C38.0383 49.6132 37.9842 49.6894 37.9139 49.7801C37.8451 49.8695 37.7455 49.9493 37.6152 50.0196C37.4863 50.0884 37.3121 50.1228 37.0924 50.1228C36.8201 50.1228 36.5756 50.0584 36.3589 49.9295C36.1436 49.8006 35.973 49.6132 35.8471 49.3672C35.7227 49.1212 35.6604 48.8225 35.6604 48.4711C35.6604 48.1256 35.7212 47.8247 35.8427 47.5684C35.9643 47.3107 36.1334 47.1116 36.3501 46.971C36.5668 46.829 36.8172 46.758 37.1012 46.758C37.3209 46.758 37.4951 46.7946 37.624 46.8678C37.7543 46.9395 37.8538 47.0215 37.9227 47.1138C37.9929 47.2046 38.0471 47.2792 38.0852 47.3378H38.1379V46.8019H38.6387V50.2721C38.6387 50.562 38.5728 50.7978 38.441 50.9794C38.3107 51.1624 38.135 51.2964 37.9139 51.3813C37.6942 51.4677 37.4497 51.5109 37.1803 51.5109ZM37.1627 49.6572C37.3706 49.6572 37.5464 49.6096 37.6898 49.5144C37.8333 49.4192 37.9424 49.2823 38.0171 49.1037C38.0918 48.925 38.1291 48.7113 38.1291 48.4623C38.1291 48.2193 38.0925 48.0048 38.0193 47.8188C37.9461 47.6329 37.8377 47.4872 37.6942 47.3817C37.5507 47.2763 37.3736 47.2236 37.1627 47.2236C36.9431 47.2236 36.7601 47.2792 36.6136 47.3905C36.4687 47.5018 36.3596 47.6512 36.2864 47.8386C36.2146 48.026 36.1788 48.2339 36.1788 48.4623C36.1788 48.6966 36.2154 48.9038 36.2886 49.0839C36.3633 49.2625 36.4731 49.4031 36.618 49.5056C36.7645 49.6066 36.946 49.6572 37.1627 49.6572ZM41.6608 51.4406C41.573 51.4406 41.4946 51.4333 41.4258 51.4186C41.357 51.4054 41.3094 51.3923 41.2831 51.3791L41.4148 50.9222C41.5408 50.9545 41.652 50.9662 41.7487 50.9574C41.8453 50.9486 41.931 50.9054 42.0057 50.8278C42.0818 50.7517 42.1513 50.6279 42.2143 50.4566L42.3109 50.1931L41.0634 46.8019H41.6257L42.5569 49.4902H42.5921L43.5233 46.8019H44.0856L42.6536 50.6675C42.5892 50.8417 42.5094 50.9859 42.4142 51.1002C42.319 51.2158 42.2085 51.3015 42.0825 51.3571C41.9581 51.4128 41.8175 51.4406 41.6608 51.4406ZM46.0195 50.2458C45.7149 50.2458 45.4477 50.1733 45.2178 50.0283C44.9894 49.8834 44.8108 49.6806 44.6819 49.4199C44.5545 49.1593 44.4908 48.8548 44.4908 48.5063C44.4908 48.1549 44.5545 47.8481 44.6819 47.586C44.8108 47.3239 44.9894 47.1204 45.2178 46.9754C45.4477 46.8305 45.7149 46.758 46.0195 46.758C46.324 46.758 46.5905 46.8305 46.8189 46.9754C47.0488 47.1204 47.2275 47.3239 47.3548 47.586C47.4837 47.8481 47.5481 48.1549 47.5481 48.5063C47.5481 48.8548 47.4837 49.1593 47.3548 49.4199C47.2275 49.6806 47.0488 49.8834 46.8189 50.0283C46.5905 50.1733 46.324 50.2458 46.0195 50.2458ZM46.0195 49.7801C46.2508 49.7801 46.4412 49.7208 46.5905 49.6022C46.7399 49.4836 46.8504 49.3277 46.9222 49.1344C46.9939 48.9411 47.0298 48.7318 47.0298 48.5063C47.0298 48.2808 46.9939 48.0707 46.9222 47.8759C46.8504 47.6812 46.7399 47.5238 46.5905 47.4037C46.4412 47.2836 46.2508 47.2236 46.0195 47.2236C45.7881 47.2236 45.5978 47.2836 45.4484 47.4037C45.2991 47.5238 45.1885 47.6812 45.1168 47.8759C45.045 48.0707 45.0092 48.2808 45.0092 48.5063C45.0092 48.7318 45.045 48.9411 45.1168 49.1344C45.1885 49.3277 45.2991 49.4836 45.4484 49.6022C45.5978 49.7208 45.7881 49.7801 46.0195 49.7801ZM50.4654 48.7962V46.8019H50.9838V50.1755H50.4654V49.6044H50.4303C50.3512 49.7758 50.2282 49.9214 50.0613 50.0415C49.8944 50.1601 49.6835 50.2194 49.4287 50.2194C49.2179 50.2194 49.0305 50.1733 48.8665 50.081C48.7025 49.9873 48.5736 49.8468 48.4799 49.6594C48.3862 49.4705 48.3394 49.2325 48.3394 48.9455V46.8019H48.8577V48.9104C48.8577 49.1564 48.9265 49.3526 49.0642 49.499C49.2033 49.6454 49.3804 49.7187 49.5957 49.7187C49.7245 49.7187 49.8556 49.6857 49.9888 49.6198C50.1235 49.5539 50.2363 49.4529 50.327 49.3167C50.4193 49.1805 50.4654 49.007 50.4654 48.7962ZM51.9331 50.1755V46.8019H52.4339V47.3115H52.469C52.5305 47.1445 52.6418 47.0091 52.8029 46.9051C52.9639 46.8012 53.1455 46.7492 53.3476 46.7492C53.3856 46.7492 53.4332 46.7499 53.4903 46.7514C53.5474 46.7529 53.5906 46.7551 53.6199 46.758V47.2851C53.6023 47.2807 53.5621 47.2741 53.4991 47.2653C53.4376 47.2551 53.3725 47.25 53.3036 47.25C53.1396 47.25 52.9932 47.2844 52.8644 47.3532C52.737 47.4205 52.636 47.5143 52.5613 47.6343C52.4881 47.7529 52.4515 47.8884 52.4515 48.0406V50.1755H51.9331ZM55.9738 51.4406V46.8019H56.4746V47.3378H56.5361C56.5742 47.2792 56.6269 47.2046 56.6942 47.1138C56.7631 47.0215 56.8612 46.9395 56.9886 46.8678C57.1174 46.7946 57.2916 46.758 57.5113 46.758C57.7953 46.758 58.0457 46.829 58.2624 46.971C58.4791 47.1131 58.6483 47.3144 58.7698 47.575C58.8913 47.8357 58.9521 48.1431 58.9521 48.4975C58.9521 48.8548 58.8913 49.1644 58.7698 49.4265C58.6483 49.6872 58.4799 49.8892 58.2646 50.0327C58.0494 50.1748 57.8012 50.2458 57.5201 50.2458C57.3034 50.2458 57.1298 50.2099 56.9995 50.1382C56.8692 50.0649 56.7689 49.9822 56.6986 49.89C56.6284 49.7963 56.5742 49.7187 56.5361 49.6572H56.4922V51.4406H55.9738ZM56.4834 48.4887C56.4834 48.7435 56.5207 48.9682 56.5954 49.163C56.6701 49.3563 56.7792 49.5078 56.9227 49.6176C57.0662 49.726 57.2419 49.7801 57.4498 49.7801C57.6665 49.7801 57.8473 49.723 57.9923 49.6088C58.1387 49.4932 58.2485 49.338 58.3217 49.1432C58.3964 48.947 58.4337 48.7288 58.4337 48.4887C58.4337 48.2515 58.3971 48.0377 58.3239 47.8474C58.2522 47.6556 58.1431 47.504 57.9967 47.3927C57.8517 47.28 57.6694 47.2236 57.4498 47.2236C57.2389 47.2236 57.0618 47.2771 56.9183 47.3839C56.7748 47.4894 56.6664 47.6373 56.5932 47.8276C56.52 48.0165 56.4834 48.2369 56.4834 48.4887ZM60.7355 50.2546C60.5217 50.2546 60.3277 50.2143 60.1535 50.1338C59.9792 50.0518 59.8409 49.9339 59.7384 49.7801C59.6359 49.6249 59.5846 49.4375 59.5846 49.2179C59.5846 49.0246 59.6227 48.8679 59.6988 48.7479C59.775 48.6263 59.8767 48.5312 60.0041 48.4623C60.1315 48.3935 60.2721 48.3423 60.4258 48.3086C60.581 48.2735 60.737 48.2456 60.8936 48.2251C61.0986 48.1988 61.2648 48.179 61.3922 48.1658C61.5211 48.1512 61.6148 48.127 61.6733 48.0934C61.7334 48.0597 61.7634 48.0011 61.7634 47.9177V47.9001C61.7634 47.6834 61.7041 47.515 61.5855 47.3949C61.4684 47.2749 61.2905 47.2148 61.0518 47.2148C60.8043 47.2148 60.6103 47.269 60.4698 47.3774C60.3292 47.4857 60.2304 47.6014 60.1732 47.7244L59.6813 47.5487C59.7691 47.3437 59.8863 47.1841 60.0327 47.0699C60.1806 46.9542 60.3416 46.8737 60.5159 46.8283C60.6916 46.7814 60.8644 46.758 61.0342 46.758C61.1426 46.758 61.267 46.7712 61.4076 46.7975C61.5496 46.8224 61.6865 46.8744 61.8183 46.9535C61.9515 47.0325 62.0621 47.1519 62.15 47.3115C62.2378 47.4711 62.2817 47.6848 62.2817 47.9528V50.1755H61.7634V49.7187H61.737C61.7019 49.7919 61.6433 49.8702 61.5613 49.9537C61.4793 50.0371 61.3703 50.1081 61.2341 50.1667C61.0979 50.2253 60.9317 50.2546 60.7355 50.2546ZM60.8146 49.7889C61.0196 49.7889 61.1923 49.7487 61.3329 49.6681C61.4749 49.5876 61.5818 49.4836 61.6536 49.3563C61.7268 49.2289 61.7634 49.0949 61.7634 48.9543V48.4799C61.7414 48.5063 61.6931 48.5304 61.6184 48.5524C61.5452 48.5729 61.4603 48.5912 61.3637 48.6073C61.2685 48.6219 61.1755 48.6351 61.0847 48.6468C60.9954 48.6571 60.9229 48.6659 60.8673 48.6732C60.7326 48.6908 60.6067 48.7193 60.4895 48.7589C60.3738 48.7969 60.2801 48.8548 60.2084 48.9324C60.1381 49.0085 60.103 49.1125 60.103 49.2442C60.103 49.4243 60.1696 49.5605 60.3028 49.6528C60.4375 49.7435 60.6081 49.7889 60.8146 49.7889ZM63.4409 51.4406C63.353 51.4406 63.2747 51.4333 63.2058 51.4186C63.137 51.4054 63.0894 51.3923 63.0631 51.3791L63.1949 50.9222C63.3208 50.9545 63.4321 50.9662 63.5287 50.9574C63.6253 50.9486 63.711 50.9054 63.7857 50.8278C63.8618 50.7517 63.9314 50.6279 63.9943 50.4566L64.091 50.1931L62.8434 46.8019H63.4057L64.337 49.4902H64.3721L65.3034 46.8019H65.8656L64.4336 50.6675C64.3692 50.8417 64.2894 50.9859 64.1942 51.1002C64.099 51.2158 63.9885 51.3015 63.8626 51.3571C63.7381 51.4128 63.5975 51.4406 63.4409 51.4406ZM66.5498 50.1755V46.8019H67.0505V47.329H67.0945C67.1647 47.1489 67.2782 47.0091 67.4349 46.9095C67.5916 46.8085 67.7797 46.758 67.9994 46.758C68.2219 46.758 68.4071 46.8085 68.555 46.9095C68.7044 47.0091 68.8208 47.1489 68.9043 47.329H68.9394C69.0258 47.1548 69.1554 47.0164 69.3281 46.9139C69.5009 46.81 69.7081 46.758 69.9497 46.758C70.2513 46.758 70.4981 46.8524 70.6899 47.0413C70.8817 47.2287 70.9776 47.5208 70.9776 47.9177V50.1755H70.4593V47.9177C70.4593 47.6687 70.3912 47.4908 70.255 47.3839C70.1188 47.2771 69.9585 47.2236 69.774 47.2236C69.5368 47.2236 69.353 47.2954 69.2227 47.4388C69.0924 47.5809 69.0272 47.761 69.0272 47.9791V50.1755H68.5001V47.8649C68.5001 47.6731 68.4379 47.5187 68.3134 47.4015C68.189 47.2829 68.0286 47.2236 67.8324 47.2236C67.6977 47.2236 67.5718 47.2595 67.4547 47.3312C67.339 47.403 67.2453 47.5025 67.1735 47.6299C67.1033 47.7559 67.0681 47.9015 67.0681 48.067V50.1755H66.5498ZM73.3398 50.2458C73.0147 50.2458 72.7343 50.174 72.4986 50.0305C72.2643 49.8856 72.0835 49.6835 71.9561 49.4243C71.8301 49.1637 71.7672 48.8606 71.7672 48.5151C71.7672 48.1695 71.8301 47.8649 71.9561 47.6014C72.0835 47.3364 72.2606 47.1299 72.4876 46.982C72.716 46.8327 72.9825 46.758 73.2871 46.758C73.4628 46.758 73.6363 46.7873 73.8076 46.8458C73.9789 46.9044 74.1348 46.9996 74.2754 47.1314C74.416 47.2617 74.528 47.4345 74.6114 47.6497C74.6949 47.8649 74.7366 48.13 74.7366 48.4448V48.6644H72.1362V48.2164H74.2095C74.2095 48.026 74.1714 47.8562 74.0953 47.7068C74.0206 47.5575 73.9137 47.4396 73.7746 47.3532C73.637 47.2668 73.4745 47.2236 73.2871 47.2236C73.0806 47.2236 72.902 47.2749 72.7511 47.3774C72.6018 47.4784 72.4868 47.6102 72.4063 47.7727C72.3258 47.9352 72.2855 48.1095 72.2855 48.2954V48.5941C72.2855 48.8489 72.3294 49.0649 72.4173 49.242C72.5066 49.4178 72.6303 49.5517 72.7885 49.644C72.9466 49.7348 73.1304 49.7801 73.3398 49.7801C73.4759 49.7801 73.5989 49.7611 73.7087 49.723C73.82 49.6835 73.9159 49.6249 73.9965 49.5473C74.077 49.4683 74.1392 49.3702 74.1832 49.253L74.6839 49.3936C74.6312 49.5634 74.5426 49.7128 74.4182 49.8416C74.2937 49.969 74.14 50.0686 73.9569 50.1403C73.7739 50.2106 73.5682 50.2458 73.3398 50.2458ZM76.0435 48.1461V50.1755H75.5251V46.8019H76.0259V47.329H76.0698C76.1489 47.1577 76.269 47.0201 76.43 46.9161C76.5911 46.8107 76.799 46.758 77.0538 46.758C77.2822 46.758 77.4821 46.8048 77.6534 46.8985C77.8247 46.9908 77.9579 47.1314 78.0531 47.3202C78.1483 47.5077 78.1959 47.7449 78.1959 48.0319V50.1755H77.6775V48.067C77.6775 47.802 77.6087 47.5955 77.4711 47.4476C77.3334 47.2983 77.1446 47.2236 76.9044 47.2236C76.739 47.2236 76.5911 47.2595 76.4608 47.3312C76.3319 47.403 76.2301 47.5077 76.1555 47.6453C76.0808 47.7829 76.0435 47.9499 76.0435 48.1461ZM80.6102 46.8019V47.2412H78.8619V46.8019H80.6102ZM79.3715 45.9937H79.8898V49.2091C79.8898 49.3555 79.911 49.4653 79.9535 49.5386C79.9974 49.6103 80.0531 49.6586 80.1204 49.6835C80.1892 49.7069 80.2617 49.7187 80.3379 49.7187C80.395 49.7187 80.4418 49.7157 80.4784 49.7099C80.515 49.7025 80.5443 49.6967 80.5663 49.6923L80.6717 50.1579C80.6366 50.1711 80.5875 50.1843 80.5245 50.1975C80.4616 50.2121 80.3818 50.2194 80.2851 50.2194C80.1387 50.2194 79.9952 50.1879 79.8547 50.125C79.7156 50.062 79.5999 49.9661 79.5076 49.8373C79.4169 49.7084 79.3715 49.5459 79.3715 49.3497V45.9937ZM83.7191 47.5575L83.2535 47.6892C83.2242 47.6116 83.181 47.5362 83.1239 47.463C83.0683 47.3883 82.9921 47.3268 82.8955 47.2785C82.7989 47.2302 82.6751 47.206 82.5243 47.206C82.3179 47.206 82.1458 47.2536 82.0082 47.3488C81.872 47.4425 81.8039 47.5618 81.8039 47.7068C81.8039 47.8357 81.8508 47.9374 81.9445 48.0121C82.0382 48.0868 82.1846 48.149 82.3837 48.1988L82.8845 48.3218C83.1861 48.395 83.4109 48.507 83.5588 48.6578C83.7067 48.8072 83.7806 48.9997 83.7806 49.2355C83.7806 49.4287 83.725 49.6015 83.6137 49.7538C83.5039 49.9061 83.3501 50.0261 83.1525 50.114C82.9548 50.2018 82.7249 50.2458 82.4628 50.2458C82.1187 50.2458 81.8339 50.1711 81.6084 50.0217C81.3829 49.8724 81.2402 49.6542 81.1802 49.3672L81.6721 49.2442C81.719 49.4258 81.8076 49.562 81.9379 49.6528C82.0697 49.7435 82.2417 49.7889 82.454 49.7889C82.6956 49.7889 82.8874 49.7377 83.0295 49.6352C83.173 49.5312 83.2447 49.4068 83.2447 49.2618C83.2447 49.1447 83.2037 49.0466 83.1217 48.9675C83.0397 48.887 82.9138 48.8269 82.7439 48.7874L82.1817 48.6556C81.8727 48.5824 81.6458 48.4689 81.5008 48.3152C81.3573 48.16 81.2856 47.966 81.2856 47.7332C81.2856 47.5428 81.339 47.3744 81.4459 47.228C81.5543 47.0816 81.7014 46.9666 81.8874 46.8832C82.0748 46.7997 82.2871 46.758 82.5243 46.758C82.8582 46.758 83.1203 46.8312 83.3106 46.9776C83.5024 47.124 83.6386 47.3173 83.7191 47.5575Z" fill="#E5A348"/>
<path d="M8.75743 36.1515C8.73161 36.3915 8.62484 36.6154 8.45471 36.7865C8.28459 36.9577 8.06125 37.0657 7.82149 37.093H3.57416H3.47017H3.05966V27.3942V24.0828C3.02682 22.5502 1.12209 22.1069 0.224464 21.981L0.15331 22.1671C0.114507 22.3021 0.0834408 22.4391 0.060263 22.5776C0.0199446 22.7905 -0.000213575 23.0068 5.60754e-05 23.2235L0.0657364 25.4949V40.0978H7.83244C9.25551 40.0978 11.4558 38.6966 11.5872 35.9217L8.75743 36.1515Z" fill="#E5A348"/>
<path d="M12.6983 25.3909L13.0541 25.5278L14.0776 25.9218L15.0738 25.5387H15.1011L15.4624 25.4019L15.6704 25.3198V24.2251V23.6066C15.6749 23.5538 15.6749 23.5007 15.6704 23.4479V23.3712C15.5975 23.056 15.4152 22.7767 15.1559 22.5831C15.0338 22.5103 14.9077 22.4445 14.7782 22.386L14.3841 22.1671L14.0667 22.0029L13.7547 22.1616L13.3551 22.3806C13.3551 22.3806 13.1198 22.5065 13.0103 22.5831C12.7541 22.7795 12.5725 23.0576 12.4958 23.3712V23.4533C12.4958 23.519 12.4958 23.5683 12.4958 23.6121V24.2251V25.3198L12.6983 25.3909Z" fill="#ED3F3B"/>
<path d="M121.175 3.8147e-06H120.907V64H121.175V3.8147e-06Z" fill="#E5A348"/>
</g>
<defs>
<clipPath id="clip0_240_1675">
<rect width="160.643" height="64" fill="white"/>
</clipPath>
</defs>
</svg>
